<svg width="21" height="21" viewBox="0 0 21 21" fill="none" xmlns="http://www.w3.org/2000/svg">
<path fill-rule="evenodd" clip-rule="evenodd" d="M2.5331 2.27253C2.4944 2.27234 2.45605 2.27979 2.42024 2.29446C2.38443 2.30913 2.35188 2.33074 2.32444 2.35803C2.29701 2.38532 2.27524 2.41777 2.26039 2.4535C2.24554 2.48923 2.23789 2.52755 2.23789 2.56625V15.2705H15.5355V11.7444C15.5355 11.4479 15.6533 11.1634 15.863 10.9537C16.0727 10.744 16.3572 10.6262 16.6537 10.6262C16.9503 10.6262 17.2347 10.744 17.4444 10.9537C17.6541 11.1634 17.7719 11.4479 17.7719 11.7444V18.0988C17.7719 19.4958 16.6388 20.6289 15.2418 20.6289H2.53011C1.13311 20.6289 0 19.4958 0 18.0988V2.56625C0.00118432 1.89507 0.268539 1.25176 0.743415 0.77744C1.21829 0.303123 1.86191 0.0365266 2.5331 0.0361328H11.7113C12.0078 0.0361328 12.2923 0.153943 12.502 0.363646C12.7117 0.573349 12.8295 0.857768 12.8295 1.15433C12.8295 1.4509 12.7117 1.73532 12.502 1.94502C12.2923 2.15472 12.0078 2.27253 11.7113 2.27253H2.5331ZM5.35692 4.37922C5.23455 4.37922 5.11338 4.40332 5.00033 4.45015C4.88727 4.49698 4.78455 4.56562 4.69802 4.65215C4.61149 4.73868 4.54285 4.8414 4.49602 4.95446C4.44919 5.06751 4.42509 5.18868 4.42509 5.31106C4.42509 5.43342 4.44919 5.5546 4.49602 5.66765C4.54285 5.78071 4.61149 5.88343 4.69802 5.96996C4.78455 6.05649 4.88727 6.12513 5.00033 6.17196C5.11338 6.21879 5.23455 6.24289 5.35692 6.24289H8.18075C8.42789 6.24289 8.6649 6.14471 8.83966 5.96996C9.01441 5.79521 9.11259 5.55819 9.11259 5.31106C9.11259 5.06392 9.01441 4.8269 8.83966 4.65215C8.6649 4.4774 8.42789 4.37922 8.18075 4.37922H5.35692ZM4.42509 9.58705C4.42509 9.07268 4.84255 8.65522 5.35692 8.65522H6.76884C7.01598 8.65522 7.25299 8.75339 7.42774 8.92815C7.6025 9.1029 7.70067 9.33992 7.70067 9.58705C7.70067 9.83419 7.6025 10.0712 7.42774 10.246C7.25299 10.4207 7.01598 10.5189 6.76884 10.5189H5.35692C5.10979 10.5189 4.87277 10.4207 4.69802 10.246C4.52327 10.0712 4.42509 9.83419 4.42509 9.58705ZM13.8657 11.1287C14.0162 11.1014 14.1546 11.0286 14.2623 10.9199L20.3736 4.78028C20.5133 4.64168 20.6243 4.47678 20.7 4.2951C20.7757 4.11341 20.8146 3.91854 20.8146 3.72172C20.8146 3.5249 20.7757 3.33003 20.7 3.14834C20.6243 2.96666 20.5133 2.80176 20.3736 2.66316L18.7932 1.08277C18.6546 0.943025 18.4897 0.832108 18.308 0.756416C18.1263 0.680723 17.9315 0.641753 17.7347 0.641753C17.5378 0.641753 17.343 0.680723 17.1613 0.756416C16.9796 0.832108 16.8147 0.943025 16.6761 1.08277L10.5394 7.18963C10.4289 7.30008 10.3559 7.44246 10.3307 7.59666L9.79394 10.8499C9.77456 10.9678 9.7838 11.0886 9.82088 11.2021C9.85796 11.3157 9.92179 11.4187 10.007 11.5024C10.0922 11.5862 10.1963 11.6482 10.3105 11.6833C10.4247 11.7184 10.5456 11.7256 10.6632 11.7042L13.8657 11.1287Z" fill="#2563EB"/>
</svg>
