<svg width="31" height="24" viewBox="0 0 31 24" fill="none" xmlns="http://www.w3.org/2000/svg">
<path d="M13.9451 23.5214C13.9451 23.5214 12.0602 23.5214 12.0602 21.5916C12.0602 19.6619 13.9451 13.8726 21.4847 13.8726C29.0243 13.8726 30.9092 19.6619 30.9092 21.5916C30.9092 23.5214 29.0243 23.5214 29.0243 23.5214H13.9451ZM21.4847 11.9428C22.9844 11.9428 24.4227 11.3329 25.4832 10.2472C26.5436 9.16149 27.1394 7.68896 27.1394 6.15355C27.1394 4.61813 26.5436 3.1456 25.4832 2.0599C24.4227 0.974199 22.9844 0.364258 21.4847 0.364258C19.985 0.364258 18.5467 0.974199 17.4862 2.0599C16.4258 3.1456 15.83 4.61813 15.83 6.15355C15.83 7.68896 16.4258 9.16149 17.4862 10.2472C18.5467 11.3329 19.985 11.9428 21.4847 11.9428ZM10.5824 23.5214C10.3031 22.9189 10.1638 22.2584 10.1753 21.5916C10.1753 18.9768 11.457 16.2848 13.8245 14.4129C12.643 14.0394 11.4117 13.8571 10.1753 13.8726C2.63571 13.8726 0.750809 19.6619 0.750809 21.5916C0.750809 23.5214 2.63571 23.5214 2.63571 23.5214H10.5824ZM9.23285 11.9428C10.4826 11.9428 11.6812 11.4345 12.5649 10.5298C13.4486 9.62504 13.9451 8.39794 13.9451 7.11843C13.9451 5.83891 13.4486 4.61181 12.5649 3.70706C11.6812 2.8023 10.4826 2.29402 9.23285 2.29402C7.98309 2.29402 6.78451 2.8023 5.90079 3.70706C5.01707 4.61181 4.52061 5.83891 4.52061 7.11843C4.52061 8.39794 5.01707 9.62504 5.90079 10.5298C6.78451 11.4345 7.98309 11.9428 9.23285 11.9428Z" fill="#64748B"/>
</svg>
