<svg width="22" height="17" viewBox="0 0 22 17" fill="none" xmlns="http://www.w3.org/2000/svg">
<path d="M9.60421 16.8563C9.60421 16.8563 8.23218 16.8563 8.23218 15.4516C8.23218 14.0469 9.60421 9.83281 15.0923 9.83281C20.5805 9.83281 21.9525 14.0469 21.9525 15.4516C21.9525 16.8563 20.5805 16.8563 20.5805 16.8563H9.60421ZM15.0923 8.42813C16.184 8.42813 17.2309 7.98414 18.0029 7.19385C18.7748 6.40356 19.2084 5.3317 19.2084 4.21406C19.2084 3.09642 18.7748 2.02456 18.0029 1.23427C17.2309 0.44398 16.184 0 15.0923 0C14.0007 0 12.9537 0.44398 12.1818 1.23427C11.4099 2.02456 10.9762 3.09642 10.9762 4.21406C10.9762 5.3317 11.4099 6.40356 12.1818 7.19385C12.9537 7.98414 14.0007 8.42813 15.0923 8.42813ZM7.15651 16.8563C6.95321 16.4177 6.85178 15.9369 6.86015 15.4516C6.86015 13.5482 7.79313 11.5887 9.5164 10.2261C8.65639 9.95423 7.76017 9.82153 6.86015 9.83281C1.37203 9.83281 0 14.0469 0 15.4516C0 16.8563 1.37203 16.8563 1.37203 16.8563H7.15651ZM6.17414 8.42813C7.08385 8.42813 7.9563 8.05814 8.59957 7.39957C9.24283 6.74099 9.60421 5.84777 9.60421 4.91641C9.60421 3.98504 9.24283 3.09182 8.59957 2.43325C7.9563 1.77467 7.08385 1.40469 6.17414 1.40469C5.26442 1.40469 4.39197 1.77467 3.74871 2.43325C3.10544 3.09182 2.74406 3.98504 2.74406 4.91641C2.74406 5.84777 3.10544 6.74099 3.74871 7.39957C4.39197 8.05814 5.26442 8.42813 6.17414 8.42813Z" fill="#2563EB"/>
</svg>
