<svg width="22" height="17" viewBox="0 0 22 17" fill="none" xmlns="http://www.w3.org/2000/svg">
<path d="M9.60421 16.8924C9.60421 16.8924 8.23218 16.8924 8.23218 15.4877C8.23218 14.083 9.60421 9.86895 15.0923 9.86895C20.5805 9.86895 21.9525 14.083 21.9525 15.4877C21.9525 16.8924 20.5805 16.8924 20.5805 16.8924H9.60421ZM15.0923 8.46426C16.184 8.46426 17.2309 8.02028 18.0029 7.22999C18.7748 6.4397 19.2084 5.36783 19.2084 4.2502C19.2084 3.13256 18.7748 2.06069 18.0029 1.2704C17.2309 0.480113 16.184 0.0361328 15.0923 0.0361328C14.0007 0.0361328 12.9537 0.480113 12.1818 1.2704C11.4099 2.06069 10.9762 3.13256 10.9762 4.2502C10.9762 5.36783 11.4099 6.4397 12.1818 7.22999C12.9537 8.02028 14.0007 8.46426 15.0923 8.46426ZM7.15651 16.8924C6.95321 16.4538 6.85178 15.9731 6.86015 15.4877C6.86015 13.5843 7.79313 11.6248 9.5164 10.2623C8.65639 9.99036 7.76017 9.85766 6.86015 9.86895C1.37203 9.86895 0 14.083 0 15.4877C0 16.8924 1.37203 16.8924 1.37203 16.8924H7.15651ZM6.17414 8.46426C7.08385 8.46426 7.9563 8.09427 8.59957 7.4357C9.24283 6.77712 9.60421 5.88391 9.60421 4.95254C9.60421 4.02117 9.24283 3.12795 8.59957 2.46938C7.9563 1.8108 7.08385 1.44082 6.17414 1.44082C5.26442 1.44082 4.39197 1.8108 3.74871 2.46938C3.10544 3.12795 2.74406 4.02117 2.74406 4.95254C2.74406 5.88391 3.10544 6.77712 3.74871 7.4357C4.39197 8.09427 5.26442 8.46426 6.17414 8.46426Z" fill="#2563EB"/>
</svg>
