<svg width="20" height="20" viewBox="0 0 20 20" fill="none" xmlns="http://www.w3.org/2000/svg">
<path fill-rule="evenodd" clip-rule="evenodd" d="M9.21337 0.325322C9.42202 0.117018 9.70497 0 10 0C10.295 0 10.578 0.117018 10.7866 0.325322L17.4624 6.99207L19.6877 9.21432C19.8903 9.42388 20.0025 9.70455 20 9.99588C19.9974 10.2872 19.8804 10.5659 19.6741 10.7719C19.4678 10.9779 19.1888 11.0948 18.897 11.0973C18.6053 11.0998 18.3243 10.9878 18.1144 10.7854L17.7884 10.4599V17.7778C17.7884 18.3671 17.554 18.9324 17.1366 19.3491C16.7193 19.7659 16.1533 20 15.5632 20H12.2253C11.9302 20 11.6472 19.8829 11.4385 19.6746C11.2299 19.4662 11.1126 19.1836 11.1126 18.8889V15.5555H8.88737V18.8889C8.88737 19.1836 8.77015 19.4662 8.56149 19.6746C8.35283 19.8829 8.06983 20 7.77474 20H4.43685C3.84667 20 3.28067 19.7659 2.86335 19.3491C2.44603 18.9324 2.21159 18.3671 2.21159 17.7778V10.4599L1.88559 10.7854C1.67574 10.9878 1.39469 11.0998 1.10296 11.0973C0.811234 11.0948 0.532173 10.9779 0.325882 10.7719C0.119591 10.5659 0.0025771 10.2872 4.20604e-05 9.99588C-0.00249298 9.70455 0.109654 9.42388 0.312328 9.21432L2.53759 6.99207L9.21337 0.325322Z" fill="#2563EB"/>
</svg>
