<svg width="29" height="28" viewBox="0 0 29 28" fill="none" xmlns="http://www.w3.org/2000/svg">
<path fill-rule="evenodd" clip-rule="evenodd" d="M13.6062 0.811186C13.8929 0.525018 14.2816 0.364258 14.6869 0.364258C15.0922 0.364258 15.4809 0.525018 15.7676 0.811186L24.9388 9.96998L27.9958 13.0229C28.2743 13.3108 28.4283 13.6964 28.4249 14.0966C28.4214 14.4969 28.2606 14.8797 27.9772 15.1627C27.6938 15.4458 27.3104 15.6063 26.9097 15.6098C26.5089 15.6132 26.1228 15.4594 25.8345 15.1813L25.3866 14.7341V24.7874C25.3866 25.5971 25.0646 26.3736 24.4912 26.9461C23.9179 27.5187 23.1404 27.8403 22.3296 27.8403H17.744C17.3386 27.8403 16.9498 27.6795 16.6631 27.3932C16.3765 27.1069 16.2154 26.7187 16.2154 26.3138V21.7344H13.1584V26.3138C13.1584 26.7187 12.9973 27.1069 12.7107 27.3932C12.424 27.6795 12.0352 27.8403 11.6298 27.8403H7.04423C6.23345 27.8403 5.45587 27.5187 4.88256 26.9461C4.30925 26.3736 3.98717 25.5971 3.98717 24.7874V14.7341L3.53931 15.1813C3.25102 15.4594 2.86491 15.6132 2.46413 15.6098C2.06336 15.6063 1.67998 15.4458 1.39658 15.1627C1.11318 14.8797 0.952423 14.4969 0.948941 14.0966C0.945458 13.6964 1.09953 13.3108 1.37796 13.0229L4.43503 9.96998L13.6062 0.811186Z" fill="#2563EB"/>
</svg>
