<svg width="22" height="20" viewBox="0 0 22 20" fill="none" xmlns="http://www.w3.org/2000/svg">
<path fill-rule="evenodd" clip-rule="evenodd" d="M7.60216 2.19243C7.53157 3.96856 7.60216 15.1435 7.60216 15.1435C7.77593 15.1435 7.94969 15.1716 8.11694 15.2267L14.1183 17.2192V4.26818C13.9433 4.26814 13.7695 4.24001 13.6035 4.18489L7.60216 2.19243ZM7.08739 0.0831397C7.42155 -0.0277132 7.78278 -0.0277132 8.11694 0.0831397L14.1183 2.07561L19.8623 0.168593C20.0745 0.0981617 20.3004 0.0789527 20.5216 0.112548C20.7427 0.146144 20.9526 0.231583 21.1341 0.361827C21.3155 0.492071 21.4633 0.663392 21.5653 0.861677C21.6672 1.05996 21.7204 1.27954 21.7205 1.50231V15.8065C21.7204 16.1471 21.6128 16.479 21.4128 16.7553C21.2128 17.0316 20.9306 17.2381 20.6062 17.3458L14.6331 19.3285C14.2986 19.4399 13.938 19.4399 13.6035 19.3285L7.60216 17.336L1.85819 19.243C1.64599 19.3135 1.42003 19.3327 1.19892 19.2991C0.977808 19.2655 0.767875 19.1801 0.586415 19.0498C0.404955 18.9196 0.25716 18.7482 0.155205 18.55C0.0532511 18.3517 5.51088e-05 18.1321 0 17.9093V3.60511C3.16385e-05 3.26453 0.107665 2.93259 0.307651 2.65633C0.507638 2.38007 0.789835 2.17349 1.11426 2.06587L7.08739 0.0831397Z" fill="#2563EB"/>
</svg>
