<svg width="31" height="28" viewBox="0 0 31 28" fill="none" xmlns="http://www.w3.org/2000/svg">
<path fill-rule="evenodd" clip-rule="evenodd" d="M11.1723 3.37622C11.0753 5.81627 11.1723 21.1684 11.1723 21.1684C11.411 21.1684 11.6497 21.207 11.8795 21.2828L20.1242 24.02V6.2279C19.8838 6.22783 19.645 6.18919 19.417 6.11347L11.1723 3.37622ZM10.4651 0.478475C10.9242 0.326185 11.4204 0.326185 11.8795 0.478475L20.1242 3.21573L28.0153 0.595871C28.3068 0.499112 28.6172 0.472723 28.921 0.518877C29.2247 0.565031 29.5131 0.682407 29.7624 0.861336C30.0117 1.04027 30.2148 1.27563 30.3548 1.54803C30.4949 1.82044 30.568 2.12209 30.568 2.42814V22.0793C30.568 22.5472 30.4201 23.0032 30.1454 23.3827C29.8707 23.7623 29.483 24.0461 29.0373 24.1939L20.8314 26.9178C20.3718 27.0708 19.8765 27.0708 19.417 26.9178L11.1723 24.1805L3.2812 26.8004C2.98969 26.8972 2.67926 26.9235 2.3755 26.8774C2.07174 26.8312 1.78333 26.7139 1.53404 26.5349C1.28475 26.356 1.08171 26.1206 0.941646 25.8482C0.801581 25.5758 0.7285 25.2742 0.728424 24.9681V5.31696C0.728468 4.84907 0.876335 4.39306 1.15108 4.01353C1.42582 3.634 1.8135 3.35021 2.2592 3.20235L10.4651 0.478475Z" fill="#64748B"/>
</svg>
