<svg width="27" height="28" viewBox="0 0 27 28" fill="none" xmlns="http://www.w3.org/2000/svg">
<path d="M18.2265 10.4883C18.2265 11.8309 17.7076 13.1186 16.7839 14.068C15.8603 15.0174 14.6076 15.5508 13.3014 15.5508C11.9952 15.5508 10.7425 15.0174 9.81886 14.068C8.89524 13.1186 8.37635 11.8309 8.37635 10.4883C8.37635 9.14562 8.89524 7.85796 9.81886 6.90855C10.7425 5.95915 11.9952 5.42578 13.3014 5.42578C14.6076 5.42578 15.8603 5.95915 16.7839 6.90855C17.7076 7.85796 18.2265 9.14562 18.2265 10.4883Z" fill="#64748B"/>
<path fill-rule="evenodd" clip-rule="evenodd" d="M0.169312 13.8643C0.169312 10.2838 1.55301 6.85006 4.01602 4.31832C6.47903 1.78658 9.81958 0.364258 13.3028 0.364258C16.786 0.364258 20.1266 1.78658 22.5896 4.31832C25.0526 6.85006 26.4363 10.2838 26.4363 13.8643C26.4363 17.4447 25.0526 20.8785 22.5896 23.4102C20.1266 25.9419 16.786 27.3643 13.3028 27.3643C9.81958 27.3643 6.47903 25.9419 4.01602 23.4102C1.55301 20.8785 0.169312 17.4447 0.169312 13.8643ZM13.3028 2.05176C11.1387 2.05188 9.0186 2.68012 7.18654 3.86418C5.35447 5.04824 3.88491 6.73999 2.94698 8.74471C2.00906 10.7494 1.6409 12.9856 1.88487 15.196C2.12884 17.4063 2.97504 19.5009 4.32606 21.2386C5.49166 19.3081 8.05761 17.2393 13.3028 17.2393C18.548 17.2393 21.1123 19.3064 22.2795 21.2386C23.6306 19.5009 24.4767 17.4063 24.7207 15.196C24.9647 12.9856 24.5965 10.7494 23.6586 8.74471C22.7207 6.73999 21.2511 5.04824 19.4191 3.86418C17.587 2.68012 15.4669 2.05188 13.3028 2.05176Z" fill="#64748B"/>
</svg>
