<svg width="20" height="19" viewBox="0 0 20 19" fill="none" xmlns="http://www.w3.org/2000/svg">
<path d="M19.1009 8.62688L15.2967 12.0161L16.4557 17.0846C16.5196 17.3597 16.5032 17.6482 16.4084 17.9137C16.3136 18.1792 16.1447 18.4097 15.923 18.5762C15.7014 18.7426 15.437 18.8375 15.1631 18.8488C14.8893 18.8602 14.6183 18.7875 14.3845 18.6399L10.1153 15.9272L5.84358 18.6399C5.60977 18.7866 5.33914 18.8587 5.06578 18.8469C4.79241 18.8351 4.52852 18.7401 4.30735 18.5738C4.08618 18.4075 3.91761 18.1774 3.82286 17.9124C3.72812 17.6474 3.71144 17.3593 3.77493 17.0846L4.93817 12.0161L1.13395 8.62688C0.927081 8.44229 0.777471 8.19886 0.703802 7.92701C0.630134 7.65515 0.635671 7.3669 0.719723 7.09828C0.803775 6.82965 0.962617 6.59254 1.17641 6.41656C1.39021 6.24058 1.64948 6.13353 1.92185 6.10878L6.90961 5.69332L8.8337 0.885796C8.93785 0.623789 9.11511 0.399675 9.34294 0.241946C9.57077 0.0842179 9.83888 0 10.1132 0C10.3875 0 10.6556 0.0842179 10.8834 0.241946C11.1113 0.399675 11.2885 0.623789 11.3927 0.885796L13.3159 5.69332L18.3037 6.10878C18.5766 6.13261 18.8366 6.23906 19.0512 6.4148C19.2658 6.59054 19.4253 6.82774 19.5099 7.09669C19.5945 7.36565 19.6003 7.65439 19.5267 7.92674C19.453 8.1991 19.3031 8.44295 19.0958 8.62776L19.1009 8.62688Z" fill="#2563EB"/>
</svg>
