<svg width="27" height="27" viewBox="0 0 27 27" fill="none" xmlns="http://www.w3.org/2000/svg">
<path d="M25.6402 12.1651L20.414 16.8212L22.0062 23.7843C22.0941 24.1623 22.0715 24.5587 21.9412 24.9234C21.811 25.2881 21.579 25.6048 21.2745 25.8335C20.97 26.0621 20.6067 26.1925 20.2305 26.2081C19.8543 26.2236 19.4821 26.1238 19.1608 25.9211L13.2958 22.1943L7.42732 25.9211C7.10612 26.1226 6.73433 26.2215 6.35877 26.2054C5.98322 26.1892 5.6207 26.0587 5.31685 25.8302C5.013 25.6018 4.78142 25.2856 4.65126 24.9215C4.5211 24.5575 4.49819 24.1618 4.5854 23.7843L6.18348 16.8212L0.957223 12.1651C0.673028 11.9115 0.467494 11.5771 0.366287 11.2036C0.265081 10.8301 0.272688 10.4341 0.388159 10.0651C0.50363 9.69606 0.721847 9.37032 1.01556 9.12856C1.30927 8.8868 1.66546 8.73973 2.03964 8.70573L8.89184 8.13497L11.5352 1.53039C11.6782 1.17044 11.9218 0.862551 12.2347 0.645863C12.5477 0.429175 12.9161 0.313477 13.2929 0.313477C13.6698 0.313477 14.0381 0.429175 14.3511 0.645863C14.6641 0.862551 14.9076 1.17044 15.0507 1.53039L17.6928 8.13497L24.545 8.70573C24.92 8.73847 25.2772 8.88471 25.572 9.12614C25.8668 9.36757 26.086 9.69344 26.2022 10.0629C26.3184 10.4324 26.3264 10.8291 26.2252 11.2033C26.124 11.5774 25.9181 11.9124 25.6333 12.1663L25.6402 12.1651Z" fill="#64748B"/>
</svg>
