<svg width="38" height="25" viewBox="0 0 38 25" fill="none" xmlns="http://www.w3.org/2000/svg">
<path fill-rule="evenodd" clip-rule="evenodd" d="M0.158112 7.1174V3.90111C0.158112 3.10372 0.474875 2.33898 1.03872 1.77514C1.60256 1.21129 2.3673 0.894531 3.16469 0.894531H34.7338C35.5312 0.894531 36.2959 1.21129 36.8598 1.77514C37.4236 2.33898 37.7404 3.10372 37.7404 3.90111V7.24593C37.7403 7.71803 37.6012 8.17965 37.3406 8.57327C37.08 8.9669 36.7093 9.27512 36.2747 9.45953C35.5916 9.74865 35.0094 10.2334 34.6013 10.8527C34.1931 11.472 33.9773 12.1982 33.981 12.9399C33.9847 13.6816 34.2077 14.4056 34.622 15.0208C35.0363 15.636 35.6234 16.1149 36.3092 16.3972C36.7325 16.5721 37.0943 16.8685 37.3491 17.249C37.6038 17.6295 37.74 18.077 37.7404 18.5349V21.9406C37.7404 22.738 37.4236 23.5027 36.8598 24.0666C36.2959 24.6304 35.5312 24.9472 34.7338 24.9472H3.16469C2.3673 24.9472 1.60256 24.6304 1.03872 24.0666C0.474875 23.5027 0.158112 22.738 0.158112 21.9406V18.7363C0.158112 17.7066 0.761683 16.7723 1.70124 16.3491C2.36236 16.0517 2.92337 15.5695 3.31669 14.9605C3.71001 14.3515 3.91885 13.6419 3.91806 12.9169C3.91727 12.192 3.70687 11.4827 3.31221 10.8747C2.91756 10.2666 2.35549 9.78555 1.69372 9.48959C1.23646 9.28432 0.848256 8.95129 0.575823 8.53058C0.303389 8.10986 0.158334 7.61938 0.158112 7.11815M27.2173 9.16263C27.8154 9.16263 28.3889 8.92506 28.8118 8.50217C29.2347 8.07929 29.4723 7.50574 29.4723 6.90769C29.4723 6.30965 29.2347 5.73609 28.8118 5.31321C28.3889 4.89033 27.8154 4.65276 27.2173 4.65276C26.6193 4.65276 26.0457 4.89033 25.6229 5.31321C25.2 5.73609 24.9624 6.30965 24.9624 6.90769C24.9624 7.50574 25.2 8.07929 25.6229 8.50217C26.0457 8.92506 26.6193 9.16263 27.2173 9.16263ZM27.2173 15.1758C27.8154 15.1758 28.3889 14.9382 28.8118 14.5153C29.2347 14.0925 29.4723 13.5189 29.4723 12.9209C29.4723 12.3228 29.2347 11.7493 28.8118 11.3264C28.3889 10.9035 27.8154 10.6659 27.2173 10.6659C26.6193 10.6659 26.0457 10.9035 25.6229 11.3264C25.2 11.7493 24.9624 12.3228 24.9624 12.9209C24.9624 13.5189 25.2 14.0925 25.6229 14.5153C26.0457 14.9382 26.6193 15.1758 27.2173 15.1758ZM27.2173 21.189C27.8154 21.189 28.3889 20.9514 28.8118 20.5285C29.2347 20.1056 29.4723 19.5321 29.4723 18.934C29.4723 18.336 29.2347 17.7624 28.8118 17.3395C28.3889 16.9167 27.8154 16.6791 27.2173 16.6791C26.6193 16.6791 26.0457 16.9167 25.6229 17.3395C25.2 17.7624 24.9624 18.336 24.9624 18.934C24.9624 19.5321 25.2 20.1056 25.6229 20.5285C26.0457 20.9514 26.6193 21.189 27.2173 21.189Z" fill="#0037B3"/>
</svg>
