<svg width="34" height="27" viewBox="0 0 34 27" fill="none" xmlns="http://www.w3.org/2000/svg">
<path d="M3.93409 0.463867L7.22521 7.0461H12.1619L8.87077 0.463867H12.1619L15.453 7.0461H20.3897L17.0986 0.463867H20.3897L23.6808 7.0461H28.6175L25.3264 0.463867H30.263C31.1681 0.463867 31.9432 0.786396 32.5882 1.43146C33.2333 2.07651 33.5553 2.85102 33.5542 3.75499V23.5017C33.5542 24.4067 33.2322 25.1818 32.5882 25.8269C31.9442 26.4719 31.1692 26.7939 30.263 26.7928H3.93409C3.02904 26.7928 2.25453 26.4708 1.61056 25.8269C0.966602 25.1829 0.644072 24.4078 0.642975 23.5017V3.75499C0.642975 2.84993 0.965505 2.07542 1.61056 1.43146C2.25562 0.787493 3.03013 0.464964 3.93409 0.463867Z" fill="#0037B3"/>
</svg>
