<svg width="34" height="34" viewBox="0 0 34 34" fill="none" xmlns="http://www.w3.org/2000/svg">
<path d="M16.7676 0.601562C13.5359 0.601563 10.3767 1.55989 7.68954 3.35537C5.00243 5.15084 2.90807 7.70282 1.67133 10.6886C0.434585 13.6743 0.110997 16.9598 0.741483 20.1295C1.37197 23.2991 2.92821 26.2107 5.21342 28.4959C7.49863 30.7811 10.4102 32.3373 13.5798 32.9678C16.7495 33.5983 20.0349 33.2747 23.0207 32.038C26.0065 30.8012 28.5585 28.7069 30.3539 26.0197C32.1494 23.3326 33.1077 20.1734 33.1077 16.9417C33.1032 12.6094 31.3801 8.4559 28.3168 5.39252C25.2534 2.32915 21.0999 0.606137 16.7676 0.601562ZM18.0246 6.78881L21.9195 4.10997C24.1495 5.00821 26.1082 6.46992 27.6039 8.35212L26.347 12.5848C26.3156 12.5848 26.2826 12.6005 26.2512 12.6115L22.6658 13.7758C22.612 13.7932 22.5596 13.8142 22.5087 13.8386L18.0246 10.7544V6.78881ZM11.6205 4.10997L15.5107 6.78881V10.7544L11.0234 13.8449C10.9725 13.8205 10.9201 13.7995 10.8663 13.7821L7.28093 12.6178C7.24951 12.6068 7.21651 12.599 7.18509 12.5911L5.92816 8.3584C7.4253 6.47281 9.38689 5.0088 11.6205 4.10997ZM9.57797 24.3921H5.12529C3.8219 22.3656 3.07468 20.0318 2.95866 17.6251L6.41522 14.973C6.44498 14.9861 6.4754 14.9976 6.50635 15.0076L10.0933 16.1734C10.1413 16.1878 10.1901 16.1993 10.2394 16.2079L11.9347 21.1445C11.9112 21.1728 11.8876 21.2011 11.8656 21.231L9.65025 24.2806C9.6242 24.3165 9.60008 24.3537 9.57797 24.3921ZM20.3326 30.2966C17.9967 30.9187 15.5386 30.9187 13.2027 30.2966L11.6221 25.8345C11.6425 25.8093 11.6645 25.7858 11.6833 25.759L13.9002 22.7078C13.9262 22.6725 13.9504 22.6358 13.9725 22.5979H19.5627C19.5849 22.6358 19.609 22.6725 19.635 22.7078L21.8519 25.759C21.8708 25.7858 21.8928 25.8093 21.9132 25.8345L20.3326 30.2966ZM23.9573 24.3874C23.9352 24.349 23.911 24.3117 23.885 24.2759L21.6681 21.231C21.6461 21.2011 21.6225 21.1728 21.599 21.1445L23.2942 16.2079C23.3436 16.1993 23.3924 16.1878 23.4404 16.1734L27.0273 15.0076C27.0583 14.9976 27.0887 14.9861 27.1185 14.973L30.575 17.6251C30.459 20.0318 29.7118 22.3656 28.4084 24.3921L23.9573 24.3874Z" fill="#0037B3"/>
</svg>
