<svg width="33" height="29" viewBox="0 0 33 29" fill="none" xmlns="http://www.w3.org/2000/svg">
<path d="M23.1118 5.3659H26.3798V28.2421H6.77167V5.3659H10.0397V3.73189C10.0397 2.86516 10.384 2.03392 10.9969 1.42105C11.6097 0.808176 12.441 0.463867 13.3077 0.463867H19.8438C20.7105 0.463867 21.5417 0.808176 22.1546 1.42105C22.7675 2.03392 23.1118 2.86516 23.1118 3.73189V5.3659ZM28.0138 5.3659H29.6478C30.5146 5.3659 31.3458 5.71021 31.9587 6.32308C32.5715 6.93596 32.9159 7.76719 32.9159 8.63392V24.974C32.9159 25.8408 32.5715 26.672 31.9587 27.2849C31.3458 27.8977 30.5146 28.2421 29.6478 28.2421H28.0138V5.3659ZM5.13766 5.3659V28.2421H3.50365C2.63692 28.2421 1.80568 27.8977 1.19281 27.2849C0.579935 26.672 0.235626 25.8408 0.235626 24.974V8.63392C0.235626 6.83651 1.70624 5.3659 3.50365 5.3659H5.13766ZM13.3077 3.73189V5.3659H19.8438V3.73189H13.3077Z" fill="#0037B3"/>
</svg>
