<svg width="183" height="71" viewBox="0 0 183 71" fill="none" xmlns="http://www.w3.org/2000/svg">
<rect width="183" height="48.8701" rx="7" fill="#F1F4F9"/>
<path d="M34.6426 30.6108C32.0059 30.6108 30.125 29.187 30.0547 27.1128H32.0234C32.0938 28.2378 33.2012 28.9409 34.625 28.9409C36.1543 28.9409 37.2793 28.0972 37.2793 26.8667C37.2793 25.6187 36.2246 24.7046 34.4141 24.7046H33.3242V23.1226H34.4141C35.8555 23.1226 36.875 22.314 36.875 21.1011C36.875 19.9409 36.0137 19.1499 34.6602 19.1499C33.377 19.1499 32.252 19.853 32.1992 21.0132H30.3359C30.3887 18.939 32.3047 17.5327 34.6777 17.5327C37.1738 17.5327 38.7559 19.1147 38.7383 20.9956C38.7559 22.437 37.8594 23.4917 36.4883 23.8257V23.9136C38.2285 24.1597 39.2305 25.3198 39.2305 26.937C39.2305 29.064 37.2793 30.6108 34.6426 30.6108ZM55.2266 28.6245V29.9956H40.8125V28.6245H47.1758V25.1968H48.8281V28.6245H55.2266ZM53.8906 18.5698V19.9233H48.8457C48.916 22.1294 51.2539 23.9575 54.4883 24.4409L53.8555 25.7417C51.2275 25.3286 49.0303 24.0806 48.002 22.2437C46.9736 24.0806 44.7852 25.3286 42.1484 25.7417L41.5156 24.4409C44.75 23.9575 47.0703 22.1294 47.1582 19.9233H42.1133V18.5698H47.1758V16.4604H48.8281V18.5698H53.8906ZM64.3496 17.5679V24.9155H56.9844V17.5679H64.3496ZM58.6191 18.9214V23.5972H62.7148V18.9214H58.6191ZM68.7441 16.1616V20.8726H71.0293V22.2788H68.7441V27.7104H67.0742V16.1616H68.7441ZM69.4121 30.2417V31.5952H58.7598V26.603H60.4297V30.2417H69.4121ZM85.4785 16.1792V31.9292H83.8789V16.1792H85.4785ZM82.2793 16.478V31.1558H80.6797V23.562H78.9043C78.7637 26.6382 77.4453 28.5542 75.4941 28.5366C73.4375 28.5542 72.1016 26.3921 72.1016 22.9819C72.1016 19.5718 73.4375 17.4272 75.4941 17.4448C77.4102 17.4272 78.7109 19.2466 78.9043 22.2085H80.6797V16.478H82.2793ZM75.4941 19.0093C74.3516 19.0093 73.6484 20.4683 73.6484 22.9819C73.6484 25.4956 74.3516 26.9546 75.4941 26.9546C76.6543 26.9546 77.375 25.4956 77.375 22.9819C77.375 20.4683 76.6543 19.0093 75.4941 19.0093ZM97.6602 20.187C97.6426 23.0698 99.3828 25.9526 101.826 27.0425L100.824 28.3608C99.0137 27.4995 97.5811 25.7329 96.8516 23.5796C96.1133 25.8823 94.6631 27.7896 92.7734 28.7124L91.7539 27.3062C94.2324 26.1987 95.9727 23.1929 95.9727 20.187V17.4976H97.6602V20.187ZM104.92 16.1792V31.9644H103.25V16.1792H104.92ZM112.936 19.0093C112.936 21.0132 114.324 22.9292 116.732 23.7378L115.889 25.0386C114.104 24.4233 112.795 23.1929 112.109 21.646C111.424 23.3511 110.062 24.687 108.207 25.3374L107.311 24.0366C109.771 23.1929 111.248 21.1714 111.266 18.9917V18.5698H107.803V17.2163H116.328V18.5698H112.936V19.0093ZM119.809 16.1792V20.2222H122.094V21.6284H119.809V25.6714H118.139V16.1792H119.809ZM119.809 26.4448V31.9292H118.139V27.7983H109.402V26.4448H119.809ZM135.26 16.1792V22.5601H137.791V23.9487H135.26V31.9292H133.607V16.1792H135.26ZM132.236 18.6401V20.0112H122.902V18.6401H126.787V16.3901H128.457V18.6401H132.236ZM127.631 21.1714C129.881 21.1714 131.533 22.6831 131.551 24.8276C131.533 26.9897 129.881 28.4839 127.631 28.5015C125.363 28.4839 123.711 26.9897 123.711 24.8276C123.711 22.6831 125.363 21.1714 127.631 21.1714ZM127.631 22.5425C126.295 22.5425 125.293 23.4741 125.311 24.8276C125.293 26.1987 126.295 27.1128 127.631 27.0952C128.967 27.1128 129.951 26.1987 129.951 24.8276C129.951 23.4741 128.967 22.5425 127.631 22.5425ZM151.643 16.1792V31.9292H149.955V16.1792H151.643ZM146.949 17.8667C146.949 22.4722 144.98 26.48 139.584 29.064L138.705 27.7104C142.897 25.7153 144.937 22.8765 145.262 19.2026H139.461V17.8667H146.949Z" fill="black"/>
<path d="M93.6951 68.2927C92.9115 69.5442 91.0885 69.5442 90.3049 68.2927L79.1944 50.5484C78.3604 49.2164 79.3179 47.487 80.8896 47.487H103.11C104.682 47.487 105.64 49.2164 104.806 50.5484L93.6951 68.2927Z" fill="#F1F4F9"/>
</svg>
