<svg width="24" height="23" viewBox="0 0 24 23" fill="none" xmlns="http://www.w3.org/2000/svg">
<path d="M9.20819 22.8386L6.25681 17.2663L0.65625 14.2867L2.1856 12.7658L7.06032 13.5947L11.3674 9.28767L0.773458 4.76598L2.73351 2.81723L15.6193 5.02723L20.0252 0.594512C20.4206 0.198171 20.9054 0 21.4797 0C22.054 0 22.5388 0.198171 22.9342 0.594512C23.3315 0.990854 23.5301 1.47475 23.5301 2.0462C23.5301 2.61764 23.332 3.10154 22.9356 3.49788L18.4944 7.91083L20.7059 20.7896L18.7373 22.7581L14.234 12.1642L9.92697 16.4712L10.7361 21.3107L9.20819 22.8386Z" fill="#4D82F3"/>
</svg>
