<svg width="24" height="20" viewBox="0 0 24 20" fill="none" xmlns="http://www.w3.org/2000/svg">
<path d="M16.2292 3.42579H18.5131V19.4128H4.80991V3.42579H7.09377V2.28386C7.09377 1.67814 7.33439 1.09723 7.76269 0.668927C8.191 0.24062 8.77191 0 9.37763 0H13.9453C14.5511 0 15.132 0.24062 15.5603 0.668927C15.9886 1.09723 16.2292 1.67814 16.2292 2.28386V3.42579ZM19.655 3.42579H20.7969C21.4026 3.42579 21.9836 3.66641 22.4119 4.09472C22.8402 4.52302 23.0808 5.10393 23.0808 5.70965V17.1289C23.0808 17.7347 22.8402 18.3156 22.4119 18.7439C21.9836 19.1722 21.4026 19.4128 20.7969 19.4128H19.655V3.42579ZM3.66798 3.42579V19.4128H2.52605C1.92033 19.4128 1.33942 19.1722 0.911115 18.7439C0.482808 18.3156 0.242188 17.7347 0.242188 17.1289V5.70965C0.242188 4.45353 1.26992 3.42579 2.52605 3.42579H3.66798ZM9.37763 2.28386V3.42579H13.9453V2.28386H9.37763Z" fill="#4D82F3"/>
</svg>
