<svg width="24" height="23" viewBox="0 0 24 23" fill="none" xmlns="http://www.w3.org/2000/svg">
<path d="M11.8334 0C9.57484 0 7.36704 0.66973 5.48914 1.9245C3.61125 3.17927 2.14761 4.96272 1.28331 7.04932C0.41901 9.13592 0.19287 11.432 0.633486 13.6471C1.0741 15.8622 2.16168 17.8969 3.7587 19.494C5.35572 21.091 7.39044 22.1786 9.60557 22.6192C11.8207 23.0598 14.1167 22.8336 16.2033 21.9693C18.2899 21.105 20.0734 19.6414 21.3282 17.7635C22.5829 15.8856 23.2527 13.6778 23.2527 11.4193C23.2495 8.39169 22.0453 5.48901 19.9045 3.34817C17.7637 1.20732 14.861 0.0031972 11.8334 0ZM12.7118 4.32396L15.4337 2.45185C16.9922 3.07959 18.361 4.10111 19.4063 5.41648L18.5279 8.37452C18.506 8.37452 18.4829 8.3855 18.4609 8.39318L15.9553 9.20681C15.9177 9.21896 15.8811 9.23364 15.8455 9.25073L12.7118 7.09534V4.32396ZM8.23628 2.45185L10.955 4.32396V7.09534L7.81904 9.25512C7.78347 9.23803 7.74679 9.22336 7.70924 9.2112L5.20358 8.39757C5.18162 8.38989 5.15857 8.3844 5.13661 8.37891L4.2582 5.42087C5.30447 4.10313 6.67533 3.08 8.23628 2.45185ZM6.80887 16.6261H3.69712C2.78624 15.2098 2.26404 13.5788 2.18296 11.8969L4.59858 10.0435C4.61938 10.0526 4.64063 10.0607 4.66226 10.0676L7.16902 10.8824C7.20255 10.8924 7.23665 10.9005 7.27113 10.9065L8.45589 14.3565C8.43942 14.3762 8.42295 14.396 8.40758 14.4169L6.85938 16.5481C6.84118 16.5732 6.82432 16.5992 6.80887 16.6261ZM14.3247 20.7524C12.6923 21.1872 10.9744 21.1872 9.34198 20.7524L8.23738 17.634C8.25166 17.6165 8.26703 17.6 8.28021 17.5813L9.8295 15.449C9.84766 15.4243 9.86452 15.3986 9.88001 15.3721H13.7867C13.8022 15.3986 13.8191 15.4243 13.8372 15.449L15.3865 17.5813C15.3997 17.6 15.4151 17.6165 15.4293 17.634L14.3247 20.7524ZM16.8579 16.6228C16.8424 16.5959 16.8255 16.5699 16.8073 16.5448L15.2581 14.4169C15.2427 14.396 15.2262 14.3762 15.2097 14.3565L16.3945 10.9065C16.429 10.9005 16.4631 10.8924 16.4966 10.8824L19.0034 10.0676C19.025 10.0607 19.0463 10.0526 19.067 10.0435L21.4827 11.8969C21.4016 13.5788 20.8794 15.2098 19.9685 16.6261L16.8579 16.6228Z" fill="#4D82F3"/>
</svg>
