<svg width="27" height="17" viewBox="0 0 27 17" fill="none" xmlns="http://www.w3.org/2000/svg">
<path fill-rule="evenodd" clip-rule="evenodd" d="M0 4.34886V2.10115C0 1.54389 0.221371 1.00945 0.615413 0.615413C1.00946 0.221371 1.54389 0 2.10115 0H24.1632C24.7205 0 25.2549 0.221371 25.649 0.615413C26.043 1.00945 26.2644 1.54389 26.2644 2.10115V4.43868C26.2643 4.7686 26.1671 5.09121 25.985 5.36629C25.8029 5.64138 25.5438 5.85678 25.2401 5.98565C24.7627 6.18771 24.3558 6.52646 24.0706 6.95926C23.7854 7.39206 23.6346 7.89957 23.6372 8.4179C23.6397 8.93624 23.7956 9.44222 24.0851 9.87216C24.3747 10.3021 24.7849 10.6368 25.2642 10.8341C25.56 10.9562 25.8129 11.1634 25.9909 11.4293C26.1689 11.6952 26.2641 12.008 26.2644 12.328V14.7081C26.2644 15.2653 26.043 15.7998 25.649 16.1938C25.2549 16.5878 24.7205 16.8092 24.1632 16.8092H2.10115C1.54389 16.8092 1.00946 16.5878 0.615413 16.1938C0.221371 15.7998 0 15.2653 0 14.7081V12.4688C0 11.7491 0.421806 11.0962 1.07842 10.8004C1.54044 10.5926 1.9325 10.2556 2.20738 9.83001C2.48225 9.40444 2.6282 8.90847 2.62764 8.40185C2.62709 7.89523 2.48005 7.39958 2.20425 6.97461C1.92844 6.54965 1.53564 6.2135 1.07316 6.00666C0.753605 5.86321 0.482308 5.63047 0.291918 5.33645C0.101527 5.04243 0.000155379 4.69966 0 4.34938M18.9104 5.77816C19.3283 5.77816 19.7291 5.61214 20.0247 5.31661C20.3202 5.02107 20.4862 4.62025 20.4862 4.2023C20.4862 3.78436 20.3202 3.38353 20.0247 3.088C19.7291 2.79247 19.3283 2.62644 18.9104 2.62644C18.4924 2.62644 18.0916 2.79247 17.7961 3.088C17.5005 3.38353 17.3345 3.78436 17.3345 4.2023C17.3345 4.62025 17.5005 5.02107 17.7961 5.31661C18.0916 5.61214 18.4924 5.77816 18.9104 5.77816ZM18.9104 9.98047C19.3283 9.98047 19.7291 9.81444 20.0247 9.51891C20.3202 9.22338 20.4862 8.82255 20.4862 8.4046C20.4862 7.98666 20.3202 7.58583 20.0247 7.2903C19.7291 6.99477 19.3283 6.82874 18.9104 6.82874C18.4924 6.82874 18.0916 6.99477 17.7961 7.2903C17.5005 7.58583 17.3345 7.98666 17.3345 8.4046C17.3345 8.82255 17.5005 9.22338 17.7961 9.51891C18.0916 9.81444 18.4924 9.98047 18.9104 9.98047ZM18.9104 14.1828C19.3283 14.1828 19.7291 14.0167 20.0247 13.7212C20.3202 13.4257 20.4862 13.0248 20.4862 12.6069C20.4862 12.189 20.3202 11.7881 20.0247 11.4926C19.7291 11.1971 19.3283 11.031 18.9104 11.031C18.4924 11.031 18.0916 11.1971 17.7961 11.4926C17.5005 11.7881 17.3345 12.189 17.3345 12.6069C17.3345 13.0248 17.5005 13.4257 17.7961 13.7212C18.0916 14.0167 18.4924 14.1828 18.9104 14.1828Z" fill="#4D82F3"/>
</svg>
