<svg width="18" height="18" viewBox="0 0 18 18" fill="none" xmlns="http://www.w3.org/2000/svg">
<rect width="17.2028" height="17.2028" rx="8.6014" fill="#F1F4F9"/>
<path fill-rule="evenodd" clip-rule="evenodd" d="M8.20746 4.09571C8.47123 4.04285 8.72791 4.21383 8.78077 4.4776L9.82015 9.66413L8.86495 9.85555L7.82557 4.66902C7.77271 4.40525 7.94369 4.14857 8.20746 4.09571Z" fill="#CBD4E1"/>
<path fill-rule="evenodd" clip-rule="evenodd" d="M13.1565 8.74895C13.1945 9.01526 13.0095 9.262 12.7432 9.30006L8.86186 9.85472L8.72405 8.89032L12.6054 8.33566C12.8717 8.2976 13.1184 8.48264 13.1565 8.74895Z" fill="#CBD4E1"/>
<path d="M11.1215 10.1219C11.3621 10.1256 11.5571 10.3246 11.5213 10.5626C11.4522 11.0216 11.2853 11.4623 11.0301 11.8541C10.6953 12.3681 10.222 12.777 9.66483 13.0336C9.10766 13.2902 8.4893 13.384 7.88108 13.3043C7.27286 13.2247 6.69955 12.9747 6.22728 12.5832C5.75501 12.1917 5.40302 11.6747 5.2119 11.0919C5.02078 10.509 4.99833 9.88394 5.14712 9.28884C5.29591 8.69374 5.6099 8.15282 6.05285 7.72847C6.3905 7.40501 6.79259 7.15933 7.23085 7.00626C7.45806 6.9269 7.68979 7.08163 7.7381 7.3174V7.3174C7.78641 7.55317 7.63207 7.77983 7.40902 7.87022C7.13052 7.98308 6.87464 8.14813 6.65576 8.35782C6.33145 8.6685 6.10156 9.06454 5.99263 9.50024C5.88369 9.93594 5.90013 10.3936 6.04006 10.8203C6.17998 11.2471 6.43769 11.6256 6.78347 11.9122C7.12924 12.1988 7.54899 12.3818 7.9943 12.4402C8.4396 12.4985 8.89233 12.4298 9.30027 12.2419C9.7082 12.0541 10.0547 11.7547 10.2999 11.3784C10.4653 11.1244 10.58 10.8424 10.6393 10.5478C10.6867 10.3118 10.8808 10.1181 11.1215 10.1219V10.1219Z" fill="#CBD4E1"/>
</svg>
