<svg width="127" height="145" viewBox="0 0 127 145" fill="none" xmlns="http://www.w3.org/2000/svg">
<path fill-rule="evenodd" clip-rule="evenodd" d="M49.4227 1.47467C53.4867 0.66023 57.4415 3.29455 58.2559 7.35859L74.2701 87.2694L59.5529 90.2188L43.5387 10.3079C42.7243 6.24388 45.3586 2.2891 49.4227 1.47467Z" fill="#2563EB"/>
<path fill-rule="evenodd" clip-rule="evenodd" d="M125.672 73.1688C126.258 77.2719 123.407 81.0735 119.304 81.6599L59.5031 90.2057L57.3797 75.3469L117.181 66.801C121.284 66.2147 125.085 69.0656 125.672 73.1688Z" fill="#2563EB"/>
<path d="M94.3193 94.3203C98.0269 94.3779 101.032 97.4442 100.48 101.111C99.4147 108.184 96.8441 114.974 92.9119 121.01C87.7532 128.929 80.461 135.229 71.8764 139.182C63.2918 143.135 53.7645 144.582 44.3934 143.354C35.0223 142.126 26.1892 138.274 18.9127 132.243C11.6363 126.212 6.21297 118.246 3.26834 109.265C0.323711 100.285 -0.0223002 90.6544 2.27022 81.4855C4.56273 72.3166 9.40039 63.9824 16.2252 57.4444C21.4274 52.4607 27.6227 48.6754 34.3751 46.3169C37.8757 45.0942 41.4462 47.4783 42.1905 51.1108C42.9348 54.7434 40.5568 58.2356 37.1202 59.6283C32.8293 61.3672 28.8869 63.9102 25.5144 67.1409C20.5176 71.9278 16.9757 78.0296 15.2973 84.7427C13.6188 91.4557 13.8721 98.5064 16.028 105.082C18.1839 111.657 22.1546 117.489 27.4821 121.905C32.8095 126.321 39.2767 129.141 46.1378 130.04C52.9988 130.939 59.9742 129.88 66.2594 126.985C72.5446 124.091 77.8836 119.478 81.6606 113.68C84.2097 109.767 85.9773 105.421 86.8901 100.882C87.6212 97.2472 90.6117 94.2627 94.3193 94.3203Z" fill="#2563EB"/>
</svg>
