<svg width="564" height="85" viewBox="0 0 564 85" fill="none" xmlns="http://www.w3.org/2000/svg">
<path d="M539.704 83.3617C525.723 83.4216 511.16 77.1879 511.075 57.1891L511.024 45.338C510.939 25.617 525.45 19.6291 537.301 19.5784C550.171 19.5233 562.877 24.4686 562.99 50.8559C562.997 52.4299 562.823 55.0231 562.551 56.5983L529.405 56.7403L529.406 56.8329C529.443 65.6286 535.563 67.7319 540.007 67.7129C544.544 67.6935 546.487 67.3148 548.983 66.4708C550.37 66.0019 551.756 65.2553 553.329 65.0634C556.475 64.6795 559.443 65.7779 560.658 68.5503C562.622 73.0788 560.417 76.977 555.984 79.5884C553.028 81.3603 546.463 83.3327 539.704 83.3617ZM537.458 34.5771C533.384 34.5945 529.412 36.6485 529.353 44.6114L545.001 44.5444C545.244 36.5807 541.532 34.5596 537.458 34.5771Z" fill="#2563EB"/>
<path d="M486.609 82.1016L467.814 82.1821L467.587 29.1298C467.56 23.019 471.991 19.8521 476.898 19.831C480.509 19.8156 483.942 21.5601 485.531 24.979C488.943 21.7238 493.286 19.7609 497.823 19.7414C499.212 19.7355 500.786 19.9139 502.178 20.4635C505.702 21.9298 507.755 25.6246 507.126 29.9789C506.496 34.3333 503.175 37.1252 499.101 37.1426C497.805 37.1482 496.138 37.0627 494.842 37.1609C489.751 37.553 486.708 40.4363 486.45 45.0668L486.609 82.1016Z" fill="#2563EB"/>
<path d="M426.164 83.8465C414.406 83.8969 405.029 78.104 404.946 58.5681L404.821 29.4032C404.794 23.0147 409.133 20.1259 414.318 20.1037C419.503 20.0815 423.866 22.933 423.894 29.3215L424.023 59.5975C424.05 65.8934 428.226 68.005 431.374 67.9916C434.429 67.9785 438.772 65.9229 438.747 59.9974L438.615 29.1659C438.588 22.87 442.835 19.9816 447.927 19.9597C453.112 19.9375 457.383 22.7895 457.41 29.0854L457.638 82.2303L442.916 82.2934L441.872 76.187C438.466 80.9236 432.831 83.818 426.164 83.8465Z" fill="#2563EB"/>
<path d="M367.976 65.1165L367.864 39.007L364.809 39.0201C358.976 39.0451 356.645 35.3515 356.628 31.4628C356.612 27.6668 358.817 23.676 364.743 23.6506L367.798 23.6376L367.75 12.4345C367.723 6.13862 372.248 3.24899 376.877 3.22917C381.506 3.20934 386.055 6.06011 386.082 12.356L386.13 23.559L391.593 23.5356C397.518 23.5103 399.758 27.482 399.774 31.2781C399.791 35.1667 397.492 38.8801 391.659 38.9051L386.196 38.9285L386.306 64.6677C386.318 67.4453 387.71 68.0874 389.284 68.1733C390.673 68.2599 391.505 67.7934 393.356 67.7855C396.412 67.7724 399.013 69.7982 399.674 72.8508C400.524 76.6433 398.964 79.9832 396.379 81.6608C394.255 83.0588 390.648 84.0001 387.5 84.0136C375.186 84.0663 368.036 79.0972 367.976 65.1165Z" fill="#2563EB"/>
<path d="M332.182 82.7622L331.868 9.34073C331.84 2.95223 336.18 0.0633935 341.365 0.0411869C346.549 0.0189803 350.913 2.87054 350.941 9.25904L351.255 82.6805L332.182 82.7622Z" fill="#2563EB"/>
<path d="M290.539 84.4247C278.781 84.475 269.404 78.6821 269.321 59.1462L269.196 29.9813C269.169 23.5929 273.508 20.704 278.693 20.6818C283.878 20.6596 288.241 23.5112 288.269 29.8997L288.398 60.1756C288.425 66.4715 292.601 68.5832 295.749 68.5697C298.804 68.5566 303.147 66.5011 303.122 60.5755L302.99 29.744C302.963 23.4481 307.21 20.5597 312.302 20.5379C317.487 20.5157 321.758 23.3676 321.785 29.6635L322.013 82.8084L307.291 82.8715L306.247 76.7651C302.841 81.5017 297.206 84.3961 290.539 84.4247Z" fill="#2563EB"/>
<path d="M225.683 29.9821L225.792 55.2583C225.829 63.9615 232.051 68.2865 238.717 68.258C242.976 68.2397 246.029 67.5785 248.524 66.4568C249.91 65.8027 251.572 64.7771 253.33 64.4918C256.661 63.922 259.443 64.9286 261.308 67.976C263.639 71.7622 262.175 75.9349 258.946 78.5412C253.871 82.7295 245.917 84.6153 238.787 84.6459C222.77 84.7145 206.81 76.635 206.722 56.1733L206.607 29.2305C206.519 8.76875 222.409 0.552888 238.427 0.484285C246.667 0.448993 253.064 2.36596 256.686 4.94293C260.494 7.61169 262.364 12.0479 260.159 15.9461C258.321 19.1946 254.901 20.5055 251.751 19.9634C249.619 19.6022 248.041 18.5905 246.65 18.0409C244.424 17.2171 242.293 16.8559 238.497 16.8722C231.831 16.9007 225.646 21.2789 225.683 29.9821Z" fill="#2563EB"/>
<path d="M204.497 83.3148L183.572 83.4044L171.073 61.7922L165.911 67.1845L165.981 83.4798L147.463 83.5591L147.149 10.1376C147.123 4.02686 151.646 0.859475 156.461 0.838855C161.275 0.818235 165.64 3.94755 165.666 10.0583L165.809 43.3896L182.115 24.1539C185.155 20.5299 191.077 19.6713 194.978 22.6174C198.88 25.5635 199.277 31.9504 196.051 35.39L183.424 48.7769L204.497 83.3148Z" fill="#2563EB"/>
<path d="M103.96 83.7423L85.1653 83.8228L84.9381 30.7704C84.9119 24.6597 89.3426 21.4927 94.2497 21.4717C97.8606 21.4562 101.294 23.2007 102.882 26.5271C106.479 23.1785 111.471 21.3979 116.378 21.3769C128.137 21.3265 137.513 27.1195 137.596 46.6553L137.755 83.5975L118.682 83.6792L118.519 45.626C118.492 39.33 114.316 37.2184 111.168 37.2319C108.02 37.2453 103.771 39.3931 103.797 45.689L103.96 83.7423Z" fill="#2563EB"/>
<path d="M55.4584 9.78753C55.4322 3.67679 59.866 1.2505 65.0509 1.22829C70.2358 1.20608 74.6903 3.59431 74.7164 9.70505C74.7426 15.8158 70.3088 18.2421 65.1239 18.2643C59.939 18.2865 55.4845 15.8983 55.4584 9.78753ZM55.8686 83.9493L55.6441 31.5451C55.6168 25.1566 59.9561 22.2677 65.1409 22.2455C70.3258 22.2233 74.6897 25.0749 74.717 31.4634L74.9415 83.8676L55.8686 83.9493Z" fill="#2563EB"/>
<path d="M42.8515 84.0021L14.7977 84.1222C3.68725 84.1698 0.337065 80.2028 0.291462 69.5553L0.0404477 10.9478C0.0138791 4.74445 4.62935 1.48408 9.62904 1.46267C14.6287 1.44125 19.272 4.66197 19.2985 10.8653L19.5313 65.2138C19.5408 67.4359 20.0983 67.8965 22.2278 67.8874L42.7821 67.7993C48.2448 67.776 50.2995 71.9336 50.3158 75.7297C50.332 79.5258 48.2216 83.9791 42.8515 84.0021Z" fill="#2563EB"/>
</svg>
