<svg width="10" height="11" viewBox="0 0 10 11" fill="none" xmlns="http://www.w3.org/2000/svg">
<path d="M4.95276 0.826172C5.60317 0.826172 6.24721 0.954279 6.8481 1.20318C7.449 1.45208 7.99499 1.8169 8.4549 2.2768C8.9148 2.73671 9.27962 3.2827 9.52852 3.88359C9.77742 4.48449 9.90553 5.12853 9.90553 5.77894C9.90553 6.42934 9.77742 7.07338 9.52852 7.67428C9.27962 8.27517 8.9148 8.82116 8.4549 9.28107C7.99499 9.74097 7.449 10.1058 6.8481 10.3547C6.24721 10.6036 5.60317 10.7317 4.95276 10.7317C3.63921 10.7317 2.37945 10.2099 1.45063 9.28107C0.521807 8.35224 0 7.09249 0 5.77894C0 4.46538 0.521807 3.20563 1.45063 2.2768C2.37945 1.34798 3.63921 0.826172 4.95276 0.826172ZM3.50821 5.36621C3.6724 5.36621 3.82987 5.30098 3.94597 5.18488C4.06208 5.06877 4.1273 4.9113 4.1273 4.74711C4.1273 4.58292 4.06208 4.42545 3.94597 4.30934C3.82987 4.19324 3.6724 4.12801 3.50821 4.12801C3.34401 4.12801 3.18654 4.19324 3.07044 4.30934C2.95434 4.42545 2.88911 4.58292 2.88911 4.74711C2.88911 4.9113 2.95434 5.06877 3.07044 5.18488C3.18654 5.30098 3.34401 5.36621 3.50821 5.36621ZM6.39732 5.36621C6.56151 5.36621 6.71898 5.30098 6.83509 5.18488C6.95119 5.06877 7.01642 4.9113 7.01642 4.74711C7.01642 4.58292 6.95119 4.42545 6.83509 4.30934C6.71898 4.19324 6.56151 4.12801 6.39732 4.12801C6.23313 4.12801 6.07566 4.19324 5.95955 4.30934C5.84345 4.42545 5.77822 4.58292 5.77822 4.74711C5.77822 4.9113 5.84345 5.06877 5.95955 5.18488C6.07566 5.30098 6.23313 5.36621 6.39732 5.36621ZM6.49472 8.10839C6.52883 8.15226 6.57145 8.1888 6.62003 8.21581C6.6686 8.24281 6.72213 8.25973 6.7774 8.26555C6.83267 8.27136 6.88855 8.26596 6.94168 8.24965C6.99481 8.23334 7.0441 8.20648 7.08659 8.17066C7.12908 8.13484 7.16391 8.0908 7.18897 8.0412C7.21403 7.99159 7.22881 7.93744 7.23244 7.88198C7.23606 7.82652 7.22844 7.7709 7.21005 7.71846C7.19165 7.66602 7.16285 7.61783 7.12538 7.57679C6.03164 6.28082 3.87306 6.28082 2.78015 7.57679C2.74268 7.61783 2.71388 7.66602 2.69548 7.71846C2.67709 7.7709 2.66947 7.82652 2.67309 7.88198C2.67671 7.93744 2.6915 7.99159 2.71656 8.0412C2.74162 8.0908 2.77644 8.13484 2.81894 8.17066C2.86143 8.20648 2.91072 8.23334 2.96385 8.24965C3.01698 8.26596 3.07286 8.27136 3.12813 8.26555C3.1834 8.25973 3.23693 8.24281 3.2855 8.21581C3.33408 8.1888 3.37669 8.15226 3.4108 8.10839C4.17435 7.20368 5.73035 7.20368 6.49472 8.10839Z" fill="#FF6485"/>
</svg>
