<svg width="10" height="10" viewBox="0 0 10 10" fill="none" xmlns="http://www.w3.org/2000/svg">
<path d="M4.95276 9.90553C4.30236 9.90553 3.65832 9.77742 3.05742 9.52852C2.45653 9.27962 1.91054 8.9148 1.45063 8.4549C0.990724 7.99499 0.625906 7.449 0.377007 6.8481C0.128107 6.24721 0 5.60317 0 4.95276C0 4.30236 0.128107 3.65832 0.377007 3.05742C0.625906 2.45653 0.990724 1.91054 1.45063 1.45063C1.91054 0.990724 2.45653 0.625906 3.05742 0.377007C3.65832 0.128107 4.30236 -9.69181e-09 4.95276 0C6.26632 1.95735e-08 7.52607 0.521807 8.4549 1.45063C9.38372 2.37945 9.90553 3.63921 9.90553 4.95276C9.90553 6.26632 9.38372 7.52607 8.4549 8.4549C7.52607 9.38372 6.26632 9.90553 4.95276 9.90553ZM3.50821 4.7464C3.6724 4.7464 3.82987 4.68117 3.94597 4.56507C4.06208 4.44897 4.1273 4.2915 4.1273 4.1273C4.1273 3.96311 4.06208 3.80564 3.94597 3.68954C3.82987 3.57343 3.6724 3.50821 3.50821 3.50821C3.34401 3.50821 3.18654 3.57343 3.07044 3.68954C2.95434 3.80564 2.88911 3.96311 2.88911 4.1273C2.88911 4.2915 2.95434 4.44897 3.07044 4.56507C3.18654 4.68117 3.34401 4.7464 3.50821 4.7464ZM3.41411 6.32881C3.37812 6.28785 3.33437 6.25443 3.28539 6.23048C3.23641 6.20652 3.18317 6.19251 3.12874 6.18925C3.07432 6.18599 3.01979 6.19355 2.9683 6.21149C2.91681 6.22942 2.86939 6.25738 2.82876 6.29375C2.78814 6.33012 2.75513 6.37417 2.73163 6.42337C2.70814 6.47257 2.69462 6.52594 2.69186 6.58039C2.68911 6.63485 2.69717 6.6893 2.71558 6.74062C2.734 6.79194 2.76239 6.83911 2.79914 6.87939C3.0702 7.18229 3.40214 7.42459 3.77324 7.59044C4.14435 7.7563 4.54628 7.84197 4.95276 7.84188C5.35925 7.84197 5.76118 7.7563 6.13228 7.59044C6.50339 7.42459 6.83532 7.18229 7.10639 6.87939C7.14313 6.83911 7.17153 6.79194 7.18994 6.74062C7.20836 6.6893 7.21642 6.63485 7.21366 6.58039C7.21091 6.52594 7.19739 6.47257 7.17389 6.42337C7.1504 6.37417 7.11738 6.33012 7.07676 6.29375C7.03614 6.25738 6.98872 6.22942 6.93723 6.21149C6.88574 6.19355 6.83121 6.18599 6.77678 6.18925C6.72236 6.19251 6.66912 6.20652 6.62014 6.23048C6.57116 6.25443 6.52741 6.28785 6.49142 6.32881C6.29777 6.54523 6.06063 6.71835 5.79548 6.83684C5.53034 6.95533 5.24318 7.01652 4.95276 7.01642C4.34192 7.01642 3.79299 6.75144 3.41411 6.32881ZM6.39732 4.7464C6.56151 4.7464 6.71898 4.68117 6.83509 4.56507C6.95119 4.44897 7.01642 4.2915 7.01642 4.1273C7.01642 3.96311 6.95119 3.80564 6.83509 3.68954C6.71898 3.57343 6.56151 3.50821 6.39732 3.50821C6.23313 3.50821 6.07566 3.57343 5.95955 3.68954C5.84345 3.80564 5.77822 3.96311 5.77822 4.1273C5.77822 4.2915 5.84345 4.44897 5.95955 4.56507C6.07566 4.68117 6.23313 4.7464 6.39732 4.7464Z" fill="#7EA5F8"/>
</svg>
