<svg width="67" height="54" viewBox="0 0 67 54" fill="none" xmlns="http://www.w3.org/2000/svg">
<path d="M60.3 3.35898e-07C61.9903 -0.00053459 63.6184 0.637862 64.8578 1.78721C66.0973 2.93657 66.8565 4.51193 66.9833 6.1975L67 6.7V46.9C67.0005 48.5903 66.3621 50.2184 65.2128 51.4578C64.0634 52.6973 62.4881 53.4565 60.8025 53.5833L60.3 53.6H6.7C5.00967 53.6005 3.3816 52.9621 2.14216 51.8128C0.902727 50.6634 0.143525 49.0881 0.0167507 47.4025L3.35898e-07 46.9V6.7C-0.00053459 5.00967 0.637862 3.3816 1.78721 2.14216C2.93657 0.902727 4.51193 0.143525 6.1975 0.0167507L6.7 3.35898e-07H60.3ZM50.25 36.85H16.75C15.8962 36.8509 15.0749 37.1779 14.454 37.764C13.8331 38.3502 13.4595 39.1513 13.4095 40.0037C13.3594 40.8561 13.6368 41.6954 14.1848 42.3501C14.7328 43.0049 15.5102 43.4257 16.358 43.5265L16.75 43.55H50.25C51.1038 43.5491 51.9251 43.2221 52.546 42.636C53.1669 42.0498 53.5405 41.2487 53.5905 40.3963C53.6406 39.5439 53.3632 38.7046 52.8152 38.0499C52.2672 37.3951 51.4898 36.9743 50.642 36.8734L50.25 36.85ZM35.175 23.45H31.825C30.9712 23.4509 30.1499 23.7779 29.529 24.364C28.9081 24.9502 28.5345 25.7513 28.4845 26.6037C28.4344 27.4561 28.7118 28.2954 29.2598 28.9501C29.8078 29.6049 30.5852 30.0257 31.4331 30.1265L31.825 30.15H35.175C36.0288 30.1491 36.8501 29.8221 37.471 29.236C38.0919 28.6498 38.4655 27.8487 38.5155 26.9963C38.5656 26.1439 38.2882 25.3046 37.7402 24.6499C37.1922 23.9951 36.4148 23.5743 35.5669 23.4734L35.175 23.45ZM20.1 23.45H16.75C15.8615 23.45 15.0094 23.8029 14.3812 24.4312C13.7529 25.0594 13.4 25.9115 13.4 26.8C13.4 27.6885 13.7529 28.5406 14.3812 29.1688C15.0094 29.7971 15.8615 30.15 16.75 30.15H20.1C20.9885 30.15 21.8406 29.7971 22.4688 29.1688C23.0971 28.5406 23.45 27.6885 23.45 26.8C23.45 25.9115 23.0971 25.0594 22.4688 24.4312C21.8406 23.8029 20.9885 23.45 20.1 23.45ZM50.25 23.45H46.9C46.0115 23.45 45.1594 23.8029 44.5312 24.4312C43.9029 25.0594 43.55 25.9115 43.55 26.8C43.55 27.6885 43.9029 28.5406 44.5312 29.1688C45.1594 29.7971 46.0115 30.15 46.9 30.15H50.25C51.1385 30.15 51.9906 29.7971 52.6188 29.1688C53.2471 28.5406 53.6 27.6885 53.6 26.8C53.6 25.9115 53.2471 25.0594 52.6188 24.4312C51.9906 23.8029 51.1385 23.45 50.25 23.45ZM50.25 10.05H46.9C46.0462 10.0509 45.2249 10.3779 44.604 10.964C43.9831 11.5502 43.6095 12.3513 43.5595 13.2037C43.5094 14.0561 43.7868 14.8954 44.3348 15.5501C44.8828 16.2049 45.6602 16.6257 46.508 16.7265L46.9 16.75H50.25C51.1038 16.7491 51.9251 16.4221 52.546 15.836C53.1669 15.2498 53.5405 14.4487 53.5905 13.5963C53.6406 12.7439 53.3632 11.9046 52.8152 11.2499C52.2672 10.5951 51.4898 10.1743 50.642 10.0734L50.25 10.05ZM35.175 10.05H31.825C30.9365 10.05 30.0844 10.4029 29.4562 11.0312C28.8279 11.6594 28.475 12.5115 28.475 13.4C28.475 14.2885 28.8279 15.1406 29.4562 15.7688C30.0844 16.3971 30.9365 16.75 31.825 16.75H35.175C36.0635 16.75 36.9156 16.3971 37.5438 15.7688C38.1721 15.1406 38.525 14.2885 38.525 13.4C38.525 12.5115 38.1721 11.6594 37.5438 11.0312C36.9156 10.4029 36.0635 10.05 35.175 10.05ZM20.1 10.05H16.75C15.8615 10.05 15.0094 10.4029 14.3812 11.0312C13.7529 11.6594 13.4 12.5115 13.4 13.4C13.4 14.2885 13.7529 15.1406 14.3812 15.7688C15.0094 16.3971 15.8615 16.75 16.75 16.75H20.1C20.9885 16.75 21.8406 16.3971 22.4688 15.7688C23.0971 15.1406 23.45 14.2885 23.45 13.4C23.45 12.5115 23.0971 11.6594 22.4688 11.0312C21.8406 10.4029 20.9885 10.05 20.1 10.05Z" fill="#CBD4E1"/>
</svg>
