<svg width="67" height="61" viewBox="0 0 67 61" fill="none" xmlns="http://www.w3.org/2000/svg">
<path d="M6.7 6.7H16.75L23.45 0H43.55L50.25 6.7H60.3C62.0769 6.7 63.7811 7.40589 65.0376 8.66238C66.2941 9.91888 67 11.623 67 13.4V53.6C67 55.3769 66.2941 57.0811 65.0376 58.3376C63.7811 59.5941 62.0769 60.3 60.3 60.3H6.7C4.92305 60.3 3.21888 59.5941 1.96238 58.3376C0.705891 57.0811 0 55.3769 0 53.6V13.4C0 11.623 0.705891 9.91888 1.96238 8.66238C3.21888 7.40589 4.92305 6.7 6.7 6.7ZM33.5 16.75C29.0576 16.75 24.7972 18.5147 21.656 21.656C18.5147 24.7972 16.75 29.0576 16.75 33.5C16.75 37.9424 18.5147 42.2028 21.656 45.344C24.7972 48.4853 29.0576 50.25 33.5 50.25C37.9424 50.25 42.2028 48.4853 45.344 45.344C48.4853 42.2028 50.25 37.9424 50.25 33.5C50.25 29.0576 48.4853 24.7972 45.344 21.656C42.2028 18.5147 37.9424 16.75 33.5 16.75ZM33.5 23.45C36.1654 23.45 38.7217 24.5088 40.6064 26.3936C42.4912 28.2783 43.55 30.8346 43.55 33.5C43.55 36.1654 42.4912 38.7217 40.6064 40.6064C38.7217 42.4912 36.1654 43.55 33.5 43.55C30.8346 43.55 28.2783 42.4912 26.3936 40.6064C24.5088 38.7217 23.45 36.1654 23.45 33.5C23.45 30.8346 24.5088 28.2783 26.3936 26.3936C28.2783 24.5088 30.8346 23.45 33.5 23.45Z" fill="#CBD4E1"/>
</svg>
