<svg width="65" height="76" viewBox="0 0 65 76" fill="none" xmlns="http://www.w3.org/2000/svg">
<path d="M37.0908 7.84344V7.88319L37.1297 7.89146C47.7658 10.1519 55.6535 19.3651 55.6535 30.875C55.6535 38.4733 56.9658 43.4361 58.6313 46.8864C60.0899 49.9081 61.8187 51.7675 63.1662 53.2167C63.3572 53.4222 63.5406 53.6194 63.7144 53.8105L63.7507 53.7774L63.7144 53.8105C64.5762 54.7569 64.958 55.8907 64.9508 56.9997C64.9364 59.4111 63.0858 61.7009 60.3425 61.7009H4.65745C1.91423 61.7009 0.0650033 59.4111 0.0491938 56.9997C0.0420158 55.8908 0.423746 54.7584 1.28563 53.8105C1.45946 53.6194 1.64281 53.4222 1.83381 53.2167C3.18128 51.7675 4.91013 49.9081 6.36874 46.8864C8.03422 43.4361 9.34649 38.4733 9.34649 30.875C9.34649 19.3651 17.2342 10.1519 27.8703 7.89146L27.9092 7.88319V7.84344V4.75C27.9092 2.15313 29.9659 0.0490946 32.5 0.0490946C35.0341 0.0490946 37.0908 2.15313 37.0908 4.75V7.84344ZM9.75851 54.5958L9.70042 54.6741H9.79795H55.202H55.2996L55.2415 54.5957C52.1693 50.4543 48.8063 43.5831 48.7903 30.961C48.7903 30.9506 48.7919 30.9401 48.7941 30.9255C48.7954 30.9173 48.7969 30.9076 48.7979 30.897C48.7986 30.89 48.799 30.8826 48.799 30.875C48.799 21.6666 41.5034 14.2009 32.5 14.2009C23.4966 14.2009 16.201 21.6666 16.201 30.875C16.201 30.8936 16.2036 30.9109 16.2057 30.9244L16.2059 30.9255C16.2081 30.9402 16.2097 30.9506 16.2097 30.9611C16.1937 43.5817 12.8307 50.4529 9.75851 54.5958ZM41.7321 66.5491C41.7063 71.7477 37.5804 75.9509 32.5 75.9509C27.4196 75.9509 23.2937 71.7477 23.2679 66.5491H41.7321Z" fill="#2563EB" stroke="#2563EB" stroke-width="0.0981891"/>
</svg>
