<svg width="34" height="38" viewBox="0 0 34 38" fill="none" xmlns="http://www.w3.org/2000/svg">
<path fill-rule="evenodd" clip-rule="evenodd" d="M13.0516 0.382848C14.1067 0.171407 15.1334 0.855321 15.3449 1.91041L19.5024 22.6566L15.6816 23.4223L11.5241 2.67611C11.3126 1.62102 11.9965 0.594289 13.0516 0.382848Z" fill="#2563EB"/>
<path fill-rule="evenodd" clip-rule="evenodd" d="M32.8472 18.9958C32.9994 20.061 32.2592 21.048 31.194 21.2002L15.6687 23.4189L15.1174 19.5613L30.6427 17.3426C31.708 17.1904 32.6949 17.9306 32.8472 18.9958Z" fill="#2563EB"/>
<path d="M24.7075 24.4875C25.6701 24.5025 26.4502 25.2986 26.3069 26.2505C26.0304 28.0867 25.363 29.8494 24.3421 31.4166C23.0029 33.4725 21.1097 35.108 18.881 36.1344C16.6523 37.1607 14.1788 37.5362 11.7459 37.2175C9.31304 36.8987 7.0198 35.8988 5.13071 34.3329C3.24162 32.767 1.83365 30.6991 1.06917 28.3675C0.304695 26.036 0.214864 23.5358 0.81004 21.1554C1.40522 18.775 2.66115 16.6113 4.43299 14.9139C5.78357 13.6201 7.39197 12.6373 9.145 12.025C10.0538 11.7076 10.9808 12.3265 11.174 13.2696V13.2696C11.3673 14.2127 10.7499 15.1193 9.85769 15.4809C8.7437 15.9324 7.72017 16.5925 6.84462 17.4313C5.54737 18.6741 4.62784 20.2582 4.19208 22.001C3.75632 23.7438 3.82209 25.5743 4.3818 27.2814C4.94151 28.9884 5.97236 30.5025 7.35546 31.6489C8.73855 32.7954 10.4176 33.5275 12.1988 33.7609C13.98 33.9942 15.791 33.7193 17.4227 32.9679C19.0545 32.2164 20.4405 31.019 21.4211 29.5137C22.0829 28.4978 22.5418 27.3696 22.7788 26.1912C22.9686 25.2474 23.745 24.4726 24.7075 24.4875V24.4875Z" fill="#2563EB"/>
</svg>
