<svg width="29" height="29" viewBox="0 0 29 29" fill="none" xmlns="http://www.w3.org/2000/svg">
<path d="M23.6689 13.0283H5.01418C4.66078 13.0283 4.32186 13.1531 4.07197 13.3752C3.82208 13.5974 3.6817 13.8986 3.6817 14.2127C3.6817 14.5269 3.82208 14.8281 4.07197 15.0503C4.32186 15.2724 4.66078 15.3972 5.01418 15.3972H23.6689C24.0223 15.3972 24.3612 15.2724 24.6111 15.0503C24.861 14.8281 25.0014 14.5269 25.0014 14.2127C25.0014 13.8986 24.861 13.5974 24.6111 13.3752C24.3612 13.1531 24.0223 13.0283 23.6689 13.0283Z" fill="#2563EB"/>
<path d="M23.6689 18.9512H5.01418C4.66078 18.9512 4.32186 19.076 4.07197 19.2981C3.82208 19.5202 3.6817 19.8215 3.6817 20.1356C3.6817 20.4497 3.82208 20.751 4.07197 20.9731C4.32186 21.1952 4.66078 21.32 5.01418 21.32H23.6689C24.0223 21.32 24.3612 21.1952 24.6111 20.9731C24.861 20.751 25.0014 20.4497 25.0014 20.1356C25.0014 19.8215 24.861 19.5202 24.6111 19.2981C24.3612 19.076 24.0223 18.9512 23.6689 18.9512Z" fill="#2563EB"/>
<path d="M23.6689 7.10645H5.01418C4.66078 7.10645 4.32186 7.23123 4.07197 7.45336C3.82208 7.67548 3.6817 7.97674 3.6817 8.29087C3.6817 8.605 3.82208 8.90626 4.07197 9.12839C4.32186 9.35051 4.66078 9.4753 5.01418 9.4753H23.6689C24.0223 9.4753 24.3612 9.35051 24.6111 9.12839C24.861 8.90626 25.0014 8.605 25.0014 8.29087C25.0014 7.97674 24.861 7.67548 24.6111 7.45336C24.3612 7.23123 24.0223 7.10645 23.6689 7.10645Z" fill="#2563EB"/>
</svg>
